<svg xmlns="http://www.w3.org/2000/svg" aria-labelledby="title desc" role="img" viewBox="0 0 1200 360"><title id="title">Worxbend profile banner</title><desc id="desc">A minimal banner for Worxbend with the logo and name.</desc><defs><linearGradient id="backdrop" x1="0" x2="1200" y1="0" y2="360" gradientUnits="userSpaceOnUse"><stop offset="0" stop-color="#08111f"/><stop offset=".48" stop-color="#102235"/><stop offset="1" stop-color="#14131f"/></linearGradient><linearGradient id="surface" x1="155" x2="1015" y1="70" y2="318" gradientUnits="userSpaceOnUse"><stop offset="0" stop-color="#13283c" stop-opacity=".94"/><stop offset=".55" stop-color="#111827" stop-opacity=".96"/><stop offset="1" stop-color="#221827" stop-opacity=".94"/></linearGradient><linearGradient id="logoBg" x1="0" x2="256" y1="0" y2="256" gradientUnits="userSpaceOnUse"><stop offset="0" stop-color="#08111f"/><stop offset=".54" stop-color="#102235"/><stop offset="1" stop-color="#1d1724"/></linearGradient><linearGradient id="logoMark" x1="43" x2="218" y1="66" y2="185" gradientUnits="userSpaceOnUse"><stop offset="0" stop-color="#23d3c3"/><stop offset=".47" stop-color="#4f8cff"/><stop offset="1" stop-color="#ff5f8f"/></linearGradient><linearGradient id="accentWide" x1="112" x2="1096" y1="60" y2="60" gradientUnits="userSpaceOnUse"><stop offset="0" stop-color="#23d3c3"/><stop offset=".48" stop-color="#4f8cff"/><stop offset="1" stop-color="#ffb454"/></linearGradient><pattern id="grid" width="48" height="48" patternUnits="userSpaceOnUse"><path fill="none" stroke="#d8e8ff" stroke-opacity=".055" stroke-width="1" d="M48 0H0v48"/></pattern><pattern id="pinGrid" width="88" height="88" patternUnits="userSpaceOnUse"><circle cx="7" cy="7" r="1.6" fill="#d8e8ff" opacity=".24"/></pattern><pattern id="logoGrid" width="32" height="32" patternUnits="userSpaceOnUse"><path fill="none" stroke="#d8e8ff" stroke-opacity=".07" stroke-width="1" d="M32 0H0v32"/></pattern><filter id="softShadow" width="120%" height="128%" x="-10%" y="-14%"><feDropShadow dx="0" dy="20" flood-color="#020617" flood-opacity=".42" stdDeviation="20"/></filter><filter id="logoShadow" width="136%" height="136%" x="-18%" y="-18%"><feDropShadow dx="0" dy="16" flood-color="#020617" flood-opacity=".48" stdDeviation="12"/></filter></defs><rect width="1200" height="360" fill="url(#backdrop)" rx="28"/><rect width="1200" height="360" fill="url(#grid)" rx="28"/><rect width="1200" height="360" fill="url(#pinGrid)" opacity=".65" rx="28"/><path fill="#22d3ee" d="M-26 320C140 216 256 214 392 287c121 65 250 54 389-34 150-96 300-105 465-28v135H-26z" opacity=".08"/><path fill="#ff5f8f" d="M-30 80c172-45 310-39 415 19 98 54 210 58 337 10 154-58 304-49 508 45V0H-30z" opacity=".08"/><path stroke="url(#accentWide)" stroke-linecap="round" stroke-width="2" d="M102 61h996" opacity=".88"/><g filter="url(#softShadow)"><path fill="url(#surface)" stroke="#d8e8ff" stroke-opacity=".12" d="M92 92c0-18 14-32 32-32h952c18 0 32 14 32 32v176c0 18-14 32-32 32H124c-18 0-32-14-32-32z"/></g><g transform="translate(162 84) scale(0.75)"><rect width="256" height="256" fill="url(#logoBg)" rx="42"/><rect width="256" height="256" fill="url(#logoGrid)" rx="42"/><path fill="#23d3c3" d="M0 211c50-34 93-42 130-23 39 20 80 11 126-27v95H0z" opacity=".08"/><path fill="#ff5f8f" d="M0 45c52 17 97 20 137 8 39-13 79-12 119 2V0H0z" opacity=".08"/><g filter="url(#logoShadow)"><rect width="184" height="148" x="36" y="42" fill="#07111f" stroke="#d8e8ff" stroke-opacity=".13" rx="30"/><path fill="url(#logoMark)" d="M59 151 83 81h27l19 45 19-45h27l24 70h-29l-11-37-18 37h-24l-18-37-11 37z"/><path fill="none" stroke="#f8fbff" stroke-linecap="round" stroke-linejoin="round" stroke-width="8" d="M59 151 83 81h27l19 45 19-45h27l24 70" opacity=".9"/></g><g stroke-linecap="round" stroke-linejoin="round"><path stroke="#ffb454" stroke-width="6" d="M42 68h35M178 202h36M188 58h21M45 202h24"/><path fill="none" stroke="#d8e8ff" stroke-opacity=".26" stroke-width="4" d="M39 118h28l18-18M189 111h25l15-15M37 169h28l18 18M182 154h28l19 19"/><circle cx="78" cy="68" r="6" fill="#23d3c3"/><circle cx="178" cy="202" r="6" fill="#ff5f8f"/><circle cx="209" cy="58" r="5" fill="#4f8cff"/><circle cx="69" cy="202" r="5" fill="#ffb454"/></g><g font-family="Inter, Segoe UI, Arial, sans-serif" font-weight="800" text-anchor="middle"><text x="128" y="221" fill="#f8fbff" font-size="26" letter-spacing="1.2">WXB</text></g></g><g font-family="Inter, Segoe UI, Arial, sans-serif"><text x="430" y="206" fill="#f8fbff" font-size="84" font-weight="800" letter-spacing="0">Worxbend</text></g></svg>