<svg xmlns="http://www.w3.org/2000/svg" aria-labelledby="title desc" role="img" viewBox="0 0 256 256"><title id="title">Worxbend logo</title><desc id="desc">A compact Worxbend logo with a geometric W mark, bright technical accents, and a dark rounded-square background.</desc><defs><linearGradient id="bg" x1="0" x2="256" y1="0" y2="256" gradientUnits="userSpaceOnUse"><stop offset="0" stop-color="#08111f"/><stop offset=".54" stop-color="#102235"/><stop offset="1" stop-color="#1d1724"/></linearGradient><linearGradient id="mark" x1="43" x2="218" y1="66" y2="185" gradientUnits="userSpaceOnUse"><stop offset="0" stop-color="#23d3c3"/><stop offset=".47" stop-color="#4f8cff"/><stop offset="1" stop-color="#ff5f8f"/></linearGradient><pattern id="grid" width="32" height="32" patternUnits="userSpaceOnUse"><path fill="none" stroke="#d8e8ff" stroke-opacity=".07" stroke-width="1" d="M32 0H0v32"/></pattern><filter id="shadow" width="136%" height="136%" x="-18%" y="-18%"><feDropShadow dx="0" dy="16" flood-color="#020617" flood-opacity=".48" stdDeviation="12"/></filter></defs><rect width="256" height="256" fill="url(#bg)" rx="42"/><rect width="256" height="256" fill="url(#grid)" rx="42"/><path fill="#23d3c3" d="M0 211c50-34 93-42 130-23 39 20 80 11 126-27v95H0z" opacity=".08"/><path fill="#ff5f8f" d="M0 45c52 17 97 20 137 8 39-13 79-12 119 2V0H0z" opacity=".08"/><g filter="url(#shadow)"><rect width="184" height="148" x="36" y="42" fill="#07111f" stroke="#d8e8ff" stroke-opacity=".13" rx="30"/><path fill="url(#mark)" d="M59 151 83 81h27l19 45 19-45h27l24 70h-29l-11-37-18 37h-24l-18-37-11 37z"/><path fill="none" stroke="#f8fbff" stroke-linecap="round" stroke-linejoin="round" stroke-width="8" d="M59 151 83 81h27l19 45 19-45h27l24 70" opacity=".9"/></g><g stroke-linecap="round" stroke-linejoin="round"><path stroke="#ffb454" stroke-width="6" d="M42 68h35M178 202h36M188 58h21M45 202h24"/><path fill="none" stroke="#d8e8ff" stroke-opacity=".26" stroke-width="4" d="M39 118h28l18-18M189 111h25l15-15M37 169h28l18 18M182 154h28l19 19"/><circle cx="78" cy="68" r="6" fill="#23d3c3"/><circle cx="178" cy="202" r="6" fill="#ff5f8f"/><circle cx="209" cy="58" r="5" fill="#4f8cff"/><circle cx="69" cy="202" r="5" fill="#ffb454"/></g><g font-family="Inter, Segoe UI, Arial, sans-serif" font-weight="800" text-anchor="middle"><text x="128" y="221" fill="#f8fbff" font-size="26" letter-spacing="1.2">WXB</text></g></svg>