<svg xmlns="http://www.w3.org/2000/svg" role="img" aria-labelledby="title desc" viewBox="0 0 256 256">
  <title id="title">Worxbend logo</title>
  <desc id="desc">A geometric workbench mark with a folded W monogram.</desc>
  <defs>
    <linearGradient id="bench" x1="24" y1="32" x2="232" y2="224" gradientUnits="userSpaceOnUse">
      <stop offset="0" stop-color="#00d1b2"/>
      <stop offset="0.5" stop-color="#2f81f7"/>
      <stop offset="1" stop-color="#f97316"/>
    </linearGradient>
    <linearGradient id="steel" x1="56" y1="76" x2="200" y2="180" gradientUnits="userSpaceOnUse">
      <stop offset="0" stop-color="#ffffff"/>
      <stop offset="1" stop-color="#dbeafe"/>
    </linearGradient>
    <filter id="shadow" x="-20%" y="-20%" width="140%" height="140%">
      <feDropShadow dx="0" dy="12" stdDeviation="14" flood-color="#0f172a" flood-opacity="0.26"/>
    </filter>
  </defs>
  <rect width="256" height="256" rx="56" fill="#0d1117"/>
  <path d="M52 70h152c14 0 26 12 26 26v64c0 14-12 26-26 26H52c-14 0-26-12-26-26V96c0-14 12-26 26-26Z" fill="url(#bench)" filter="url(#shadow)"/>
  <path d="M58 94h140c9 0 16 7 16 16v36c0 9-7 16-16 16H58c-9 0-16-7-16-16v-36c0-9 7-16 16-16Z" fill="#0d1117" opacity="0.88"/>
  <path d="M65 104h24l16 48 23-48h18l23 48 16-48h24l-29 72h-21l-22-46-22 46H94L65 104Z" fill="url(#steel)"/>
  <path d="M42 204h172" stroke="#8b949e" stroke-width="12" stroke-linecap="round"/>
  <path d="M74 204v22M182 204v22" stroke="#8b949e" stroke-width="12" stroke-linecap="round"/>
</svg>
